<svg xmlns="http://www.w3.org/2000/svg" viewBox="0 0 6497.398 787.200" role="img" aria-label="Ранний сигнал" preserveAspectRatio="xMinYMid meet">
  <title>Ранний сигнал</title>
  <metadata>{&quot;font&quot;:&quot;Onest&quot;,&quot;weight&quot;:700,&quot;upm&quot;:1000,&quot;trackingEm&quot;:-0.045,&quot;pairAdjustmentsEm&quot;:{&quot;а→н&quot;:-0.025,&quot;н→н&quot;:-0.025,&quot;н→и&quot;:-0.025,&quot;и→й&quot;:-0.025,&quot;и→г&quot;:-0.025,&quot;н→а&quot;:-0.005}}</metadata>
  <g fill="#17231f" transform="translate(-55.000 760.000) scale(1 -1)">
    <path transform="translate(0 0)" d="M75.00048828125 0V707.5999755859375H351.19921875Q432.1990966796875 707.5999755859375 492.39892578125 683.2999267578125Q552.5987548828125 658.9998779296875 585.9985961914062 605.4999389648438Q619.3984375 552 619.3984375 463.0003662109375Q619.3984375 379.6005859375 582.7985229492188 323.70068359375Q546.1986083984375 267.80078125 483.19873046875 240.2008056640625Q420.1988525390625 212.600830078125 339.7989501953125 212.600830078125H218.398193359375V0ZM218.398193359375 340.798828125H338.1988525390625Q401.799560546875 340.798828125 439.40008544921875 371.19915771484375Q477.0006103515625 401.5994873046875 477.0006103515625 464.00048828125Q477.0006103515625 519.601318359375 445.30023193359375 547.4017333984375Q413.599853515625 575.2021484375 344.79931640625 575.2021484375H218.398193359375Z"/>
    <path transform="translate(606 0)" d="M216.2008056640625 -7.199951171875Q182.000732421875 -7.199951171875 150.00067138671875 2.60003662109375Q118.0006103515625 12.4000244140625 92.40057373046875 32.20001220703125Q66.800537109375 52 51.9005126953125 81.79998779296875Q37.00048828125 111.5999755859375 37.00048828125 151.7999267578125Q37.00048828125 205.799560546875 58.9002685546875 238.5994873046875Q80.800048828125 271.3994140625 118.09967041015625 288.199462890625Q155.3992919921875 304.99951171875 203.49884033203125 310.89959716796875Q251.598388671875 316.7996826171875 303.597900390625 316.7996826171875H380.0010986328125Q380.0010986328125 346.2003173828125 369.60101318359375 368.4007568359375Q359.200927734375 390.6011962890625 338.10064697265625 403.40142822265625Q317.0003662109375 416.20166015625 284.1998291015625 416.20166015625Q262.799560546875 416.20166015625 243.599365234375 410.8016357421875Q224.399169921875 405.401611328125 211.29901123046875 395.10150146484375Q198.1988525390625 384.8013916015625 193.7987060546875 368.8011474609375H51.80078125Q58.2008056640625 412.600830078125 80.20074462890625 444.1005859375Q102.20068359375 475.600341796875 135.00054931640625 495.7001953125Q167.8004150390625 515.800048828125 207.50018310546875 525.5999755859375Q247.199951171875 535.39990234375 288.9996337890625 535.39990234375Q366.1995849609375 535.39990234375 415.7994384765625 506.099853515625Q465.3992919921875 476.7998046875 489.69915771484375 420.6998291015625Q513.9990234375 364.599853515625 513.9990234375 283.800048828125V0H387.80126953125L385.8011474609375 62.2001953125Q363.201171875 35.2000732421875 335.801025390625 19.800048828125Q308.40087890625 4.4000244140625 278.30078125 -1.39996337890625Q248.20068359375 -7.199951171875 216.2008056640625 -7.199951171875ZM254.1995849609375 103.798583984375Q290.400146484375 103.798583984375 319.1004638671875 118.19866943359375Q347.80078125 132.5987548828125 364.50091552734375 157.09906005859375Q381.2010498046875 181.599365234375 381.2010498046875 212V223.0006103515625H285.201171875Q263.000732421875 223.0006103515625 243.30023193359375 221.10064697265625Q223.5997314453125 219.20068359375 208.3992919921875 213.400634765625Q193.1988525390625 207.6005859375 184.59857177734375 196.30035400390625Q175.998291015625 185.0001220703125 175.998291015625 165.599609375Q175.998291015625 145.19921875 186.39849853515625 131.29901123046875Q196.7987060546875 117.3988037109375 214.79901123046875 110.59869384765625Q232.79931640625 103.798583984375 254.1995849609375 103.798583984375Z"/>
    <path transform="translate(1104 0)" d="M55.00048828125 0V527H195.1982421875V324.1988525390625H393.8009033203125V527H533.9986572265625V0H393.8009033203125V198.8009033203125H195.1982421875V0Z"/>
    <path transform="translate(1623 0)" d="M55.00048828125 0V527H195.1982421875V324.1988525390625H393.8009033203125V527H533.9986572265625V0H393.8009033203125V198.8009033203125H195.1982421875V0Z"/>
    <path transform="translate(2142 0)" d="M55.00048828125 0V527H195.1982421875V214.7962646484375Q201.5982666015625 224.596435546875 209.69842529296875 235.39666748046875Q217.798583984375 246.1968994140625 224.1986083984375 253.9969482421875L435.400390625 527H556.598876953125V0H416.401123046875V306.2039794921875Q409.0010986328125 294.8038330078125 400.7010498046875 284.2037353515625Q392.4010009765625 273.6036376953125 384.4010009765625 263.8035888671875L180.5987548828125 0Z"/>
    <path transform="translate(2684 0)" d="M55.00048828125 0.0V527.0H195.1982421875V214.7962646484375Q201.5982666015625 224.596435546875 209.69842529296875 235.39666748046875Q217.798583984375 246.1968994140625 224.1986083984375 253.9969482421875L435.400390625 527.0H556.598876953125V0.0H416.401123046875V306.2039794921875Q409.0010986328125 294.8038330078125 400.7010498046875 284.2037353515625Q392.4010009765625 273.6036376953125 384.4010009765625 263.8035888671875L180.5987548828125 0.0ZM314.599609375 571.6011962890625Q226.5999755859375 571.6011962890625 176.40020751953125 613.40087890625Q126.200439453125 655.2005615234375 125.400390625 739.999755859375H241.798828125Q242.598876953125 701.39990234375 262.8990478515625 685.9998779296875Q283.19921875 670.599853515625 315.599609375 670.599853515625Q349.199951171875 670.599853515625 368.900146484375 685.9998779296875Q388.600341796875 701.39990234375 389.400390625 739.999755859375H505.798828125Q505.3988037109375 684.4002685546875 482.29888916015625 646.6005859375Q459.198974609375 608.8009033203125 416.69915771484375 590.2010498046875Q374.1993408203125 571.6011962890625 314.599609375 571.6011962890625Z"/>
    <path transform="translate(3488 0)" d="M290.800048828125 -7.199951171875Q209.5999755859375 -7.199951171875 152.40008544921875 25.80010986328125Q95.2001953125 58.8001708984375 65.100341796875 119.50018310546875Q35.00048828125 180.2001953125 35.00048828125 262Q35.00048828125 344.7996826171875 66.100341796875 406.2996826171875Q97.2001953125 467.7996826171875 155.80010986328125 501.8997802734375Q214.4000244140625 535.9998779296875 296.6002197265625 535.9998779296875Q360.7998046875 535.9998779296875 410.79949951171875 513.2000732421875Q460.7991943359375 490.4002685546875 491.1990966796875 447.20062255859375Q521.5989990234375 404.0009765625 527.19921875 340.6014404296875H390.4012451171875Q380.801025390625 375.601806640625 355.500732421875 392.00189208984375Q330.200439453125 408.4019775390625 294.60009765625 408.4019775390625Q248.3995361328125 408.4019775390625 222.29913330078125 386.10174560546875Q196.19873046875 363.801513671875 185.0985107421875 330.10107421875Q173.998291015625 296.400634765625 173.998291015625 262.5999755859375Q173.998291015625 225.599365234375 186.198486328125 192.69891357421875Q198.398681640625 159.7984619140625 224.799072265625 139.59820556640625Q251.199462890625 119.39794921875 293.800048828125 119.39794921875Q329.80029296875 119.39794921875 356.80072021484375 135.89801025390625Q383.8011474609375 152.3980712890625 391.601318359375 186.99853515625H532.399169921875Q527.198974609375 122.198974609375 493.19903564453125 79.09930419921875Q459.1990966796875 35.9996337890625 406.39935302734375 14.39984130859375Q353.599609375 -7.199951171875 290.800048828125 -7.199951171875Z"/>
    <path transform="translate(4005 0)" d="M55.00048828125 0V527H195.1982421875V214.7962646484375Q201.5982666015625 224.596435546875 209.69842529296875 235.39666748046875Q217.798583984375 246.1968994140625 224.1986083984375 253.9969482421875L435.400390625 527H556.598876953125V0H416.401123046875V306.2039794921875Q409.0010986328125 294.8038330078125 400.7010498046875 284.2037353515625Q392.4010009765625 273.6036376953125 384.4010009765625 263.8035888671875L180.5987548828125 0Z"/>
    <path transform="translate(4547 0)" d="M55.00048828125 0V527H434.599853515625V402.2020263671875H195.1982421875V0Z"/>
    <path transform="translate(4951 0)" d="M55.00048828125 0V527H195.1982421875V324.1988525390625H393.8009033203125V527H533.9986572265625V0H393.8009033203125V198.8009033203125H195.1982421875V0Z"/>
    <path transform="translate(5490 0)" d="M216.2008056640625 -7.199951171875Q182.000732421875 -7.199951171875 150.00067138671875 2.60003662109375Q118.0006103515625 12.4000244140625 92.40057373046875 32.20001220703125Q66.800537109375 52 51.9005126953125 81.79998779296875Q37.00048828125 111.5999755859375 37.00048828125 151.7999267578125Q37.00048828125 205.799560546875 58.9002685546875 238.5994873046875Q80.800048828125 271.3994140625 118.09967041015625 288.199462890625Q155.3992919921875 304.99951171875 203.49884033203125 310.89959716796875Q251.598388671875 316.7996826171875 303.597900390625 316.7996826171875H380.0010986328125Q380.0010986328125 346.2003173828125 369.60101318359375 368.4007568359375Q359.200927734375 390.6011962890625 338.10064697265625 403.40142822265625Q317.0003662109375 416.20166015625 284.1998291015625 416.20166015625Q262.799560546875 416.20166015625 243.599365234375 410.8016357421875Q224.399169921875 405.401611328125 211.29901123046875 395.10150146484375Q198.1988525390625 384.8013916015625 193.7987060546875 368.8011474609375H51.80078125Q58.2008056640625 412.600830078125 80.20074462890625 444.1005859375Q102.20068359375 475.600341796875 135.00054931640625 495.7001953125Q167.8004150390625 515.800048828125 207.50018310546875 525.5999755859375Q247.199951171875 535.39990234375 288.9996337890625 535.39990234375Q366.1995849609375 535.39990234375 415.7994384765625 506.099853515625Q465.3992919921875 476.7998046875 489.69915771484375 420.6998291015625Q513.9990234375 364.599853515625 513.9990234375 283.800048828125V0H387.80126953125L385.8011474609375 62.2001953125Q363.201171875 35.2000732421875 335.801025390625 19.800048828125Q308.40087890625 4.4000244140625 278.30078125 -1.39996337890625Q248.20068359375 -7.199951171875 216.2008056640625 -7.199951171875ZM254.1995849609375 103.798583984375Q290.400146484375 103.798583984375 319.1004638671875 118.19866943359375Q347.80078125 132.5987548828125 364.50091552734375 157.09906005859375Q381.2010498046875 181.599365234375 381.2010498046875 212V223.0006103515625H285.201171875Q263.000732421875 223.0006103515625 243.30023193359375 221.10064697265625Q223.5997314453125 219.20068359375 208.3992919921875 213.400634765625Q193.1988525390625 207.6005859375 184.59857177734375 196.30035400390625Q175.998291015625 185.0001220703125 175.998291015625 165.599609375Q175.998291015625 145.19921875 186.39849853515625 131.29901123046875Q196.7987060546875 117.3988037109375 214.79901123046875 110.59869384765625Q232.79931640625 103.798583984375 254.1995849609375 103.798583984375Z"/>
    <path transform="translate(6013 0)" d="M11.80029296875 -1V126.997802734375Q34.8001708984375 126.997802734375 50.50018310546875 138.4976806640625Q66.2001953125 149.99755859375 77.000244140625 168.7974853515625Q89.2003173828125 191.1973876953125 94.200439453125 223.1976318359375Q99.2005615234375 255.1978759765625 101.0006103515625 286.1983642578125Q103.8006591796875 329.3985595703125 105.20068359375 374.99859619140625Q106.6007080078125 420.5986328125 107.500732421875 460.89886474609375Q108.4007568359375 501.1990966796875 108.4007568359375 527H519.39892578125V0H379.8011474609375V402.2020263671875H236.39892578125Q235.9989013671875 370.001953125 234.79888916015625 331.60211181640625Q233.598876953125 293.2022705078125 230.89892578125 254.50244140625Q228.198974609375 215.8026123046875 222.59912109375 180.8026123046875Q216.79931640625 142.0025634765625 205.5994873046875 106.70196533203125Q194.399658203125 71.4013671875 171.399658203125 44.80078125Q146.999755859375 18.4002685546875 109.79998779296875 8.70013427734375Q72.6002197265625 -1 11.80029296875 -1Z"/>
  </g>
</svg>
