<svg xmlns="http://www.w3.org/2000/svg" viewBox="0 0 6663.999 944.200" role="img" aria-label="Мера момента" preserveAspectRatio="xMinYMid meet">
  <title>Мера момента — 70% — mineral fill</title>
  <metadata>{&quot;source&quot;:&quot;K14 Onest 700 outlined master wordmark&quot;,&quot;operator&quot;:&quot;three growing occupied fields&quot;,&quot;mode&quot;:&quot;mineral-fill&quot;,&quot;intensity&quot;:70,&quot;status&quot;:&quot;K19 diagnostic; not production&quot;,&quot;palette&quot;:{&quot;ink&quot;:&quot;#17231f&quot;,&quot;mineral&quot;:&quot;#42665b&quot;}}</metadata>
  <defs>
    <clipPath id="fill-70-1" clipPathUnits="userSpaceOnUse"><path d="M680 -20H860V112H790C768 104 756 88 738 81C711 70 698 48 680 34Z"/></clipPath>
    <clipPath id="fill-70-2" clipPathUnits="userSpaceOnUse"><path d="M535 -20H710V218H628C600 206 590 178 568 164C542 146 535 103 535 64Z"/></clipPath>
    <clipPath id="fill-70-3" clipPathUnits="userSpaceOnUse"><path d="M420 -20H710V354H625C592 335 584 294 553 276C514 252 493 194 466 156C442 122 428 69 420 0Z"/></clipPath>
  </defs>
  <g fill="#17231f" transform="translate(-55.000 727.600) scale(1 -1)">
    <path transform="translate(0 0)" d="M75.00048828125 0V707.5999755859375H264.3980712890625L454.59912109375 365.998046875L643.0001220703125 707.5999755859375H825.7978515625V0H682.400146484375V518.2041015625L480.998779296875 157.60107421875H422.3995361328125L218.398193359375 518.2041015625V0Z"/>
    <path transform="translate(831 0)" d="M295.5999755859375 -7.199951171875Q213.39990234375 -7.199951171875 155.10003662109375 26.10009765625Q96.8001708984375 59.400146484375 65.90032958984375 119.8001708984375Q35.00048828125 180.2001953125 35.00048828125 261.2000732421875Q35.00048828125 342.5999755859375 66.80035400390625 404.2999267578125Q98.6002197265625 465.9998779296875 157.2000732421875 500.9998779296875Q215.7999267578125 535.9998779296875 296.39990234375 535.9998779296875Q354.7999267578125 535.9998779296875 400.19989013671875 516.1997680664062Q445.599853515625 496.399658203125 477.19976806640625 460.799560546875Q508.7996826171875 425.199462890625 524.6995849609375 377.5994873046875Q540.5994873046875 329.99951171875 539.7994384765625 273.999755859375Q539.3994140625 260.199951171875 538.4994506835938 247.30010986328125Q537.5994873046875 234.4002685546875 534.799560546875 220.6004638671875H174.3983154296875Q177.1983642578125 190.7998046875 191.09857177734375 165.79931640625Q204.998779296875 140.798828125 230.399169921875 126.19854736328125Q255.799560546875 111.5982666015625 294.0001220703125 111.5982666015625Q318.8001708984375 111.5982666015625 339.900390625 117.498291015625Q361.0006103515625 123.3983154296875 376.20086669921875 135.198486328125Q391.401123046875 146.9986572265625 396.80126953125 163.1990966796875H535.399169921875Q522.19921875 103.7994384765625 486.49932861328125 65.899658203125Q450.7994384765625 27.9998779296875 400.89959716796875 10.39996337890625Q350.999755859375 -7.199951171875 295.5999755859375 -7.199951171875ZM176.998291015625 319.199462890625H405.8013916015625Q405.4013671875 346.2001953125 392.70111083984375 369.70062255859375Q380.0008544921875 393.2010498046875 355.300537109375 407.4012451171875Q330.6002197265625 421.6014404296875 293.39990234375 421.6014404296875Q255.199462890625 421.6014404296875 229.79913330078125 406.6011962890625Q204.3988037109375 391.6009521484375 191.49859619140625 368.10052490234375Q178.598388671875 344.60009765625 176.998291015625 319.199462890625Z"/>
    <path transform="translate(1361 0)" d="M55.00048828125 -196.5997314453125V527H185.7984619140625L192.79833984375 459.7994384765625Q225.1981201171875 501.5994873046875 269.2982177734375 518.4996948242188Q313.3983154296875 535.39990234375 361.99853515625 535.39990234375Q436.5987548828125 535.39990234375 486.998779296875 499.2999267578125Q537.3988037109375 463.199951171875 563.0987548828125 401.5999755859375Q588.7987060546875 340 588.7987060546875 263Q588.7987060546875 186 562.8987426757812 124.70001220703125Q536.998779296875 63.4000244140625 484.09881591796875 28.10003662109375Q431.1988525390625 -7.199951171875 349.598876953125 -7.199951171875Q312.5987548828125 -7.199951171875 283.29864501953125 1.00006103515625Q253.99853515625 9.2000732421875 232.3984375 23.10015869140625Q210.79833984375 37.000244140625 195.1982421875 52.200439453125V-196.5997314453125ZM326.99951171875 119.39794921875Q374.199951171875 119.39794921875 401.000244140625 140.19818115234375Q427.800537109375 160.9984130859375 439.1007080078125 193.598876953125Q450.40087890625 226.1993408203125 450.40087890625 261.2000732421875Q450.40087890625 299.000732421875 438.20074462890625 332.8011474609375Q426.0006103515625 366.6015625 398.50030517578125 387.50177001953125Q371 408.4019775390625 324.3995361328125 408.4019775390625Q281.9991455078125 408.4019775390625 252.99884033203125 387.9017333984375Q223.99853515625 367.4014892578125 209.1983642578125 334.301025390625Q194.398193359375 301.2005615234375 194.398193359375 263.199951171875Q194.398193359375 224.999267578125 208.49835205078125 192.09881591796875Q222.5985107421875 159.1983642578125 252.09881591796875 139.29815673828125Q281.59912109375 119.39794921875 326.99951171875 119.39794921875Z"/>
    <path transform="translate(1936 0)" d="M216.2008056640625 -7.199951171875Q182.000732421875 -7.199951171875 150.00067138671875 2.60003662109375Q118.0006103515625 12.4000244140625 92.40057373046875 32.20001220703125Q66.800537109375 52 51.9005126953125 81.79998779296875Q37.00048828125 111.5999755859375 37.00048828125 151.7999267578125Q37.00048828125 205.799560546875 58.9002685546875 238.5994873046875Q80.800048828125 271.3994140625 118.09967041015625 288.199462890625Q155.3992919921875 304.99951171875 203.49884033203125 310.89959716796875Q251.598388671875 316.7996826171875 303.597900390625 316.7996826171875H380.0010986328125Q380.0010986328125 346.2003173828125 369.60101318359375 368.4007568359375Q359.200927734375 390.6011962890625 338.10064697265625 403.40142822265625Q317.0003662109375 416.20166015625 284.1998291015625 416.20166015625Q262.799560546875 416.20166015625 243.599365234375 410.8016357421875Q224.399169921875 405.401611328125 211.29901123046875 395.10150146484375Q198.1988525390625 384.8013916015625 193.7987060546875 368.8011474609375H51.80078125Q58.2008056640625 412.600830078125 80.20074462890625 444.1005859375Q102.20068359375 475.600341796875 135.00054931640625 495.7001953125Q167.8004150390625 515.800048828125 207.50018310546875 525.5999755859375Q247.199951171875 535.39990234375 288.9996337890625 535.39990234375Q366.1995849609375 535.39990234375 415.7994384765625 506.099853515625Q465.3992919921875 476.7998046875 489.69915771484375 420.6998291015625Q513.9990234375 364.599853515625 513.9990234375 283.800048828125V0H387.80126953125L385.8011474609375 62.2001953125Q363.201171875 35.2000732421875 335.801025390625 19.800048828125Q308.40087890625 4.4000244140625 278.30078125 -1.39996337890625Q248.20068359375 -7.199951171875 216.2008056640625 -7.199951171875ZM254.1995849609375 103.798583984375Q290.400146484375 103.798583984375 319.1004638671875 118.19866943359375Q347.80078125 132.5987548828125 364.50091552734375 157.09906005859375Q381.2010498046875 181.599365234375 381.2010498046875 212V223.0006103515625H285.201171875Q263.000732421875 223.0006103515625 243.30023193359375 221.10064697265625Q223.5997314453125 219.20068359375 208.3992919921875 213.400634765625Q193.1988525390625 207.6005859375 184.59857177734375 196.30035400390625Q175.998291015625 185.0001220703125 175.998291015625 165.599609375Q175.998291015625 145.19921875 186.39849853515625 131.29901123046875Q196.7987060546875 117.3988037109375 214.79901123046875 110.59869384765625Q232.79931640625 103.798583984375 254.1995849609375 103.798583984375Z"/>
    <path transform="translate(2696 0)" d="M55.00048828125 0V527H221.79833984375L366.3994140625 298.99853515625L509.200439453125 527H673.3983154296875V0H533.6005859375V341.2037353515625L385.3990478515625 106.8011474609375H344.5997314453125L194.7982177734375 342.4036865234375V0Z"/>
    <path transform="translate(3379 0)" d="M301.1998291015625 -7.199951171875Q221.19970703125 -7.199951171875 161.29986572265625 25.20013427734375Q101.4000244140625 57.6002197265625 68.20025634765625 118.30023193359375Q35.00048828125 179.000244140625 35.00048828125 262.4000244140625Q35.00048828125 347.3997802734375 68.500244140625 408.499755859375Q102 469.5997314453125 161.599853515625 502.7998046875Q221.19970703125 535.9998779296875 300.199951171875 535.9998779296875Q379.60009765625 535.9998779296875 438.699951171875 502.1998291015625Q497.7998046875 468.3997802734375 530.6995849609375 406.99981689453125Q563.599365234375 345.599853515625 563.599365234375 260.60009765625Q563.599365234375 177.80029296875 531.3995361328125 117.4002685546875Q499.19970703125 57.000244140625 440.39984130859375 24.900146484375Q381.5999755859375 -7.199951171875 301.1998291015625 -7.199951171875ZM299.39990234375 121.1978759765625Q346.0003662109375 121.1978759765625 373.500732421875 141.1981201171875Q401.0010986328125 161.1983642578125 413.40130615234375 193.1988525390625Q425.801513671875 225.1993408203125 425.801513671875 261.2000732421875Q425.801513671875 297.2008056640625 413.40130615234375 330.70123291015625Q401.0010986328125 364.20166015625 373.500732421875 385.40185546875Q346.0003662109375 406.60205078125 299.39990234375 406.60205078125Q253.7994384765625 406.60205078125 225.6990966796875 385.40185546875Q197.5987548828125 364.20166015625 185.19854736328125 331.001220703125Q172.79833984375 297.80078125 172.79833984375 261.2000732421875Q172.79833984375 224.599365234375 185.19854736328125 192.598876953125Q197.5987548828125 160.598388671875 225.6990966796875 140.89813232421875Q253.7994384765625 121.1978759765625 299.39990234375 121.1978759765625Z"/>
    <path transform="translate(3933 0)" d="M55.00048828125 0V527H221.79833984375L366.3994140625 298.99853515625L509.200439453125 527H673.3983154296875V0H533.6005859375V341.2037353515625L385.3990478515625 106.8011474609375H344.5997314453125L194.7982177734375 342.4036865234375V0Z"/>
    <path transform="translate(4616 0)" d="M295.5999755859375 -7.199951171875Q213.39990234375 -7.199951171875 155.10003662109375 26.10009765625Q96.8001708984375 59.400146484375 65.90032958984375 119.8001708984375Q35.00048828125 180.2001953125 35.00048828125 261.2000732421875Q35.00048828125 342.5999755859375 66.80035400390625 404.2999267578125Q98.6002197265625 465.9998779296875 157.2000732421875 500.9998779296875Q215.7999267578125 535.9998779296875 296.39990234375 535.9998779296875Q354.7999267578125 535.9998779296875 400.19989013671875 516.1997680664062Q445.599853515625 496.399658203125 477.19976806640625 460.799560546875Q508.7996826171875 425.199462890625 524.6995849609375 377.5994873046875Q540.5994873046875 329.99951171875 539.7994384765625 273.999755859375Q539.3994140625 260.199951171875 538.4994506835938 247.30010986328125Q537.5994873046875 234.4002685546875 534.799560546875 220.6004638671875H174.3983154296875Q177.1983642578125 190.7998046875 191.09857177734375 165.79931640625Q204.998779296875 140.798828125 230.399169921875 126.19854736328125Q255.799560546875 111.5982666015625 294.0001220703125 111.5982666015625Q318.8001708984375 111.5982666015625 339.900390625 117.498291015625Q361.0006103515625 123.3983154296875 376.20086669921875 135.198486328125Q391.401123046875 146.9986572265625 396.80126953125 163.1990966796875H535.399169921875Q522.19921875 103.7994384765625 486.49932861328125 65.899658203125Q450.7994384765625 27.9998779296875 400.89959716796875 10.39996337890625Q350.999755859375 -7.199951171875 295.5999755859375 -7.199951171875ZM176.998291015625 319.199462890625H405.8013916015625Q405.4013671875 346.2001953125 392.70111083984375 369.70062255859375Q380.0008544921875 393.2010498046875 355.300537109375 407.4012451171875Q330.6002197265625 421.6014404296875 293.39990234375 421.6014404296875Q255.199462890625 421.6014404296875 229.79913330078125 406.6011962890625Q204.3988037109375 391.6009521484375 191.49859619140625 368.10052490234375Q178.598388671875 344.60009765625 176.998291015625 319.199462890625Z"/>
    <path transform="translate(5146 0)" d="M55.00048828125 0V527H195.1982421875V324.1988525390625H393.8009033203125V527H533.9986572265625V0H393.8009033203125V198.8009033203125H195.1982421875V0Z"/>
    <path transform="translate(5700 0)" d="M179.8004150390625 0V402.2020263671875H8.4000244140625V527H491.99853515625V402.2020263671875H319.398193359375V0Z"/>
    <path transform="translate(6185 0)" d="M216.2008056640625 -7.199951171875Q182.000732421875 -7.199951171875 150.00067138671875 2.60003662109375Q118.0006103515625 12.4000244140625 92.40057373046875 32.20001220703125Q66.800537109375 52 51.9005126953125 81.79998779296875Q37.00048828125 111.5999755859375 37.00048828125 151.7999267578125Q37.00048828125 205.799560546875 58.9002685546875 238.5994873046875Q80.800048828125 271.3994140625 118.09967041015625 288.199462890625Q155.3992919921875 304.99951171875 203.49884033203125 310.89959716796875Q251.598388671875 316.7996826171875 303.597900390625 316.7996826171875H380.0010986328125Q380.0010986328125 346.2003173828125 369.60101318359375 368.4007568359375Q359.200927734375 390.6011962890625 338.10064697265625 403.40142822265625Q317.0003662109375 416.20166015625 284.1998291015625 416.20166015625Q262.799560546875 416.20166015625 243.599365234375 410.8016357421875Q224.399169921875 405.401611328125 211.29901123046875 395.10150146484375Q198.1988525390625 384.8013916015625 193.7987060546875 368.8011474609375H51.80078125Q58.2008056640625 412.600830078125 80.20074462890625 444.1005859375Q102.20068359375 475.600341796875 135.00054931640625 495.7001953125Q167.8004150390625 515.800048828125 207.50018310546875 525.5999755859375Q247.199951171875 535.39990234375 288.9996337890625 535.39990234375Q366.1995849609375 535.39990234375 415.7994384765625 506.099853515625Q465.3992919921875 476.7998046875 489.69915771484375 420.6998291015625Q513.9990234375 364.599853515625 513.9990234375 283.800048828125V0H387.80126953125L385.8011474609375 62.2001953125Q363.201171875 35.2000732421875 335.801025390625 19.800048828125Q308.40087890625 4.4000244140625 278.30078125 -1.39996337890625Q248.20068359375 -7.199951171875 216.2008056640625 -7.199951171875ZM254.1995849609375 103.798583984375Q290.400146484375 103.798583984375 319.1004638671875 118.19866943359375Q347.80078125 132.5987548828125 364.50091552734375 157.09906005859375Q381.2010498046875 181.599365234375 381.2010498046875 212V223.0006103515625H285.201171875Q263.000732421875 223.0006103515625 243.30023193359375 221.10064697265625Q223.5997314453125 219.20068359375 208.3992919921875 213.400634765625Q193.1988525390625 207.6005859375 184.59857177734375 196.30035400390625Q175.998291015625 185.0001220703125 175.998291015625 165.599609375Q175.998291015625 145.19921875 186.39849853515625 131.29901123046875Q196.7987060546875 117.3988037109375 214.79901123046875 110.59869384765625Q232.79931640625 103.798583984375 254.1995849609375 103.798583984375Z"/>
    <path fill="#42665b" clip-path="url(#fill-70-1)" transform="translate(0 0)" d="M75.00048828125 0V707.5999755859375H264.3980712890625L454.59912109375 365.998046875L643.0001220703125 707.5999755859375H825.7978515625V0H682.400146484375V518.2041015625L480.998779296875 157.60107421875H422.3995361328125L218.398193359375 518.2041015625V0Z"/>
    <path fill="#42665b" clip-path="url(#fill-70-2)" transform="translate(2696 0)" d="M55.00048828125 0V527H221.79833984375L366.3994140625 298.99853515625L509.200439453125 527H673.3983154296875V0H533.6005859375V341.2037353515625L385.3990478515625 106.8011474609375H344.5997314453125L194.7982177734375 342.4036865234375V0Z"/>
    <path fill="#42665b" clip-path="url(#fill-70-3)" transform="translate(3933 0)" d="M55.00048828125 0V527H221.79833984375L366.3994140625 298.99853515625L509.200439453125 527H673.3983154296875V0H533.6005859375V341.2037353515625L385.3990478515625 106.8011474609375H344.5997314453125L194.7982177734375 342.4036865234375V0Z"/>
  </g>
</svg>
